<svg width="500" height="219.85" xmlns="http://www.w3.org/2000/svg" version="1.1">
 <defs>
  <clipPath id="clip1">
   <path id="svg_1" d="m25,77l188,0l0,132.85156l-188,0l0,-132.85156zm0,0"/>
  </clipPath>
  <clipPath id="clip2">
   <path id="svg_2" d="m598,75l21.21094,0l0,58l-21.21094,0l0,-58zm0,0"/>
  </clipPath>
 </defs>
 <g>
  <title>Layer 1</title>
  <g id="surface1">
   <path id="svg_3" fill="rgb(0%,41.19873%,70.599365%)" fill-rule="nonzero" d="m211.44531,6.58594c-1.32812,-3.56641 -4.67187,-12.51172 -61.36718,-0.59375c-7.73438,1.625 -11.29688,2.33984 -18.94532,4.27344c-6.8164,1.72656 -13.57812,3.64453 -20.2539,5.88671c-12.38672,4.16016 -24.85157,8.73438 -35.79688,15.98829c-5.125,3.39453 -20.91406,17.28125 -13.19922,27.63281c3.58203,4.80078 9.01172,7.57422 14.48047,9.53515c5.84375,2.09766 36.08203,8.08594 37.9375,8.64063c3,0.89844 7.46875,2.41016 10.60156,4.08984c3.16797,1.69532 5.11329,6.44922 5.28125,7.0586c0.01172,0.8125 -0.07421,6.53515 -4.98046,11.54687c-27.36329,27.98828 -74.9375,25.75 -116.79688,4.89453c-4.78906,-2.38672 -10.50781,5.65235 -7.63281,9.51563c10.16797,13.66797 40.35937,20.54297 52.88281,21.58203c14.34766,1.1875 28.75391,0.73437 42.92578,-1.91797c14.26172,-2.67187 50.03906,-11.03906 64.51563,-37.27734c3.14453,-5.69922 5.80468,-14.27735 1.80859,-19.45703c-12.21484,-15.83204 -54.28906,-12.66407 -69.21875,-26.69141c-12.31641,-11.57031 33.375,-26.01953 67.69922,-32.18359c28.26953,-5.07422 45.1875,-2.72657 47.30859,-4.10157c3.02735,-1.96484 3.98047,-5.11328 2.75,-8.42187"/>
   <g id="svg_4" clip-rule="nonzero" clip-path="url(#clip1)">
    <path id="svg_5" fill="rgb(95.298767%,57.299805%,0%)" fill-rule="nonzero" d="m204.07813,137.83594c-64.69532,-6.01172 -112.39844,16.52734 -117.85547,19.3789c-4.63282,2.41797 -10.75,4.89063 -13.70703,9.375c-1.25,1.89063 -1.69922,5.10547 0.15625,6.65235c6.39062,5.32812 30.0664,-13.51953 40.08203,-9.48438c-7.42969,9.16797 -14.21875,14.17188 -20.75391,19.69532c-8.48828,7.18359 -41.28516,22.55078 -39.48047,-1.41407c0.97656,-12.9414 8.10156,-29.85937 14.71094,-40.875c12.26562,-20.43359 31.07812,-36.18359 52.14453,-46.96093c3.79688,-1.94141 7.36719,-3.57422 10.70313,-4.96875c-0.82813,-7.63282 -11.01563,-9.82422 -16.48047,-11.4336c-10.8125,4.08203 -21.23047,9.1836 -31.02735,15.44141c-20.01172,12.77734 -36.89062,30.71094 -47.29297,52.14062c-5.49609,11.32032 -9.42968,24.00782 -9.42578,36.67578c0.00391,5.90235 1,12.19141 4.5,17.08594c3.08985,4.32031 7.56641,6.95703 12.50782,8.71875c11.94921,4.26563 27.60937,0.5625 34.54296,-0.9414c9.89454,-2.14454 53.01954,-20.40625 72.66407,-51.41407c0.6914,-1.09375 4.52734,-3.89062 7.66015,-4.35547c26.96094,-4.00781 42.86328,1.23438 48.11328,-0.02343c2.64844,-0.63672 4.29297,-1.41016 5.75782,-3.69922c0.99218,-1.55469 1.3789,-3.5625 0.98047,-5.36328c-0.97266,-4.42578 -7.48047,-4.12891 -8.5,-4.23047"/>
   </g>
   <path id="svg_6" fill="rgb(95.298767%,57.299805%,0%)" fill-rule="nonzero" d="m211.13672,66.40625c-3.27344,-2.92969 -9.35547,-2.51172 -13.35938,-2.49219c-14.09765,0.07422 -28.1875,1.05078 -42.13671,3.13282c-2.875,0.42968 -5.7461,0.91796 -8.60157,1.46093c1.85938,0.56641 3.5,1.17188 4.5586,1.78907c2.19922,1.27734 9.33984,4.05078 12.28125,9.04296c12.5039,-2.13281 27.1875,-3.05468 29.93359,-3.14843c0.20703,-0.00782 8.46094,-0.09766 10.96875,-0.33203c2.58594,-0.24219 6.79688,-0.62891 8.19531,-3.26954c1.21094,-2.28906 -0.08984,-4.61718 -1.83984,-6.18359"/>
   <path id="svg_7" fill="rgb(0%,39.99939%,69.398499%)" fill-rule="nonzero" d="m276.34766,121.59766c1.33203,-8.71875 -16.58594,-7.71875 -18.11328,-20.17969c-0.95313,-7.78516 5.8789,-11.21484 11.14843,-11.32813c5.21485,-0.10937 7.91797,1.16016 7.91797,1.16016l-1.75,6.03516c-1.58594,-1.10938 -6.77344,-2.64063 -10.36328,-0.21875c-1.10937,0.74609 -1.67187,2.24609 -1.57812,4.26953c0.18359,4.05469 7.65625,6.69922 9.27734,7.30469c1.61719,0.60156 3.10547,1.39453 4.46484,2.3789c1.35938,0.98438 2.5,2.23047 3.42578,3.73438c0.92188,1.5039 1.38672,3.48828 1.38672,5.94922c0,1.7539 -0.26953,3.39453 -0.80859,4.92578c-0.53906,1.53125 -4.01172,11.1914 -20.84375,4.89062c-2.00781,-0.7539 -4.08594,-2.09765 -5.47266,-2.91797l2.55469,-7.12109c0.49609,0.29687 2.03516,2.30469 5.67969,3.84766c5.03906,2.13281 12.23047,2.78515 13.07422,-2.73047"/>
   <path id="svg_8" fill="rgb(0%,39.99939%,69.398499%)" fill-rule="nonzero" d="m303.67188,121.64063c0,1.91796 -0.15625,4.72265 3.84765,4.96484c4.19922,0.25391 6.13281,-0.85938 6.13281,-0.86328l-2.3164,6.88281c0,0 -4.81641,0.11328 -5.89453,0.11328c-2.3086,0 -4.21094,-0.69922 -5.69922,-2.09765c-1.48828,-1.39454 -2.23047,-3.76563 -2.23047,-7.10938l0,-49.33594l6.16016,0"/>
   <path id="svg_9" fill="rgb(0%,39.99939%,69.398499%)" fill-rule="nonzero" d="m383.15234,94.91406c1,-1.01172 2.1875,-1.88281 3.55469,-2.625c2.07813,-1.11718 4.55469,-1.67968 7.42969,-1.67968c2.10547,0 3.95312,0.25781 5.54297,0.78125c1.59375,0.51953 2.91406,1.43359 3.96484,2.74609c1.05078,1.3125 1.84766,3.08203 2.38672,5.29687c0.53906,2.21485 0.8125,5.01954 0.8125,8.41016l0,24.78906l-6.16406,0l0,-23.39453c0.09765,-4.07422 -0.33985,-7.49609 -1.48047,-9.32031c-1.89453,-3.04297 -5.17578,-2.85938 -7.09766,-2.79688c-4.82812,0.16016 -7.69922,3.69141 -8.98437,8.26954c-1.46485,5.20312 -0.99219,11.52343 -0.99219,11.52343l0,15.71875l-6.16016,0l0,-42.71875l5.48047,0"/>
   <path id="svg_10" fill="rgb(0%,39.99939%,69.398499%)" fill-rule="nonzero" d="m426.36719,90.07031l4.22265,0l1.9375,4.79297l0,37.76953l-6.16015,0l0,-42.5625zm-1.21875,-12.78906c0.07812,-1.30469 0.5,-2.39453 1.26172,-3.27344c0.76562,-0.8789 1.6914,-1.27734 2.78125,-1.19531c1.08984,0.08203 1.99218,0.61719 2.70703,1.61328c0.71094,0.9961 1.03125,2.14063 0.94922,3.44141c-0.08203,1.30469 -0.53516,2.34765 -1.35938,3.14062c-0.82812,0.78907 -1.78125,1.14453 -2.875,1.0625c-1.08984,-0.08593 -1.96094,-0.57812 -2.60937,-1.48047c-0.65235,-0.90234 -0.9375,-2.0039 -0.85547,-3.30859"/>
   <path id="svg_11" fill="rgb(0%,39.99939%,69.398499%)" fill-rule="nonzero" d="m464.66016,126.18359c-4.98828,0.41407 -10.34375,-3.63671 -9.60938,-14.2539c0.55469,-8.04297 4.26953,-14.5586 9.5586,-14.91797c9.48828,-0.64453 9.59765,6.19922 9.61718,14.25391c0.01563,8.05859 -2.13672,14.30468 -9.5664,14.91796m16.03515,-33.13281l0,-3.71094l-5.51953,-0.1289l-1.09375,3.36328c-1.49219,-0.92578 -3.95703,-1.89453 -7.83984,-2c-6.10547,-0.16797 -9.34766,1.83984 -12.47656,5.47656c-3.12891,3.64063 -4.69532,8.96094 -4.69532,15.96485c0,7.27734 1.21875,12.63671 3.65625,16.08203c2.4375,3.44922 6.25,5.14843 11.4336,5.17578c7.39062,0.03515 10.47265,-4.92578 10.47265,-4.92578l0,3.9375c0,2.07812 0.54688,4.96875 -1.96875,7.72265c-7.00781,7.6836 -16.63672,1.125 -17.82031,0.63282l-3.08984,6.53515c14.14843,7.1211 21.80468,1.4961 24.44531,-1.01953c2.64844,-2.51953 4.51562,-6.59375 4.51562,-11.89844l0,-41.20312c-0.00781,-0.00391 -0.01171,-0.00391 -0.01953,-0.00391"/>
   <path id="svg_12" fill="rgb(0%,39.99939%,69.398499%)" fill-rule="nonzero" d="m352.13281,110.16797c0.59375,8.26172 -1.5664,15.96484 -10.11328,16.27344c-6.73047,0.23828 -11.17187,-6.51172 -11.03515,-14.75c0.13671,-8.24219 2.53515,-14.5 9.41015,-15.05469c4.67969,-0.37891 10.92188,2.17969 11.73828,13.53125m5.4336,-7.63672c-0.66797,-2.63281 -1.69532,-4.88672 -3.08203,-6.75781c-1.38672,-1.875 -3.14454,-3.3125 -5.27344,-4.32031c-2.13281,-1.00391 -4.63281,-1.50782 -7.50781,-1.50782c-5.44141,0 -9.60938,1.83594 -12.51172,5.5c-2.90235,3.66797 -4.34766,8.94922 -4.34766,15.84375c0,3.20313 0.33203,6.125 1,8.75782c0.66406,2.63281 1.69531,4.88671 3.07813,6.75781c1.38671,1.875 3.14453,3.3164 5.27343,4.32031c2.13282,1.00391 4.63282,1.50781 7.50782,1.50781c5.4414,0 9.61328,-1.83593 12.51171,-5.5c2.89844,-3.66406 4.35157,-8.94531 4.35157,-15.84375c0,-3.20312 -0.33594,-6.12109 -1,-8.75781"/>
  </g>
 </g>
</svg>