<?xml version="1.0" encoding="UTF-8"?>
<svg xmlns="http://www.w3.org/2000/svg" xmlns:xlink="http://www.w3.org/1999/xlink" viewBox="-5 -5 220 220" version="1.1">
<defs>
<clipPath id="clip1">
  <path d="M 25 77 L 213 77 L 213 209.851563 L 25 209.851563 Z M 25 77 "/>
</clipPath>
<clipPath id="clip2">
  <path d="M 598 75 L 619.210938 75 L 619.210938 133 L 598 133 Z M 598 75 "/>
</clipPath>
</defs>
<g id="surface1">
<path style=" stroke:none;fill-rule:nonzero;fill:rgb(0%,41.19873%,70.599365%);fill-opacity:1;" d="M 211.445313 6.585938 C 210.117188 3.019531 206.773438 -5.925781 150.078125 5.992188 C 142.34375 7.617188 138.78125 8.332031 131.132813 10.265625 C 124.316406 11.992188 117.554688 13.910156 110.878906 16.152344 C 98.492188 20.3125 86.027344 24.886719 75.082031 32.140625 C 69.957031 35.535156 54.167969 49.421875 61.882813 59.773438 C 65.464844 64.574219 70.894531 67.347656 76.363281 69.308594 C 82.207031 71.40625 112.445313 77.394531 114.300781 77.949219 C 117.300781 78.847656 121.769531 80.359375 124.902344 82.039063 C 128.070313 83.734375 130.015625 88.488281 130.183594 89.097656 C 130.195313 89.910156 130.109375 95.632813 125.203125 100.644531 C 97.839844 128.632813 50.265625 126.394531 8.40625 105.539063 C 3.617188 103.152344 -2.101563 111.191406 0.773438 115.054688 C 10.941406 128.722656 41.132813 135.597656 53.65625 136.636719 C 68.003906 137.824219 82.410156 137.371094 96.582031 134.71875 C 110.84375 132.046875 146.621094 123.679688 161.097656 97.441406 C 164.242188 91.742188 166.902344 83.164063 162.90625 77.984375 C 150.691406 62.152344 108.617188 65.320313 93.6875 51.292969 C 81.371094 39.722656 127.0625 25.273438 161.386719 19.109375 C 189.65625 14.035156 206.574219 16.382813 208.695313 15.007813 C 211.722656 13.042969 212.675781 9.894531 211.445313 6.585938 "/>
<g clip-path="url(#clip1)" clip-rule="nonzero">
<path style=" stroke:none;fill-rule:nonzero;fill:rgb(95.298767%,57.299805%,0%);fill-opacity:1;" d="M 204.078125 137.835938 C 139.382813 131.824219 91.679688 154.363281 86.222656 157.214844 C 81.589844 159.632813 75.472656 162.105469 72.515625 166.589844 C 71.265625 168.480469 70.816406 171.695313 72.671875 173.242188 C 79.0625 178.570313 102.738281 159.722656 112.753906 163.757813 C 105.324219 172.925781 98.535156 177.929688 92 183.453125 C 83.511719 190.636719 50.714844 206.003906 52.519531 182.039063 C 53.496094 169.097656 60.621094 152.179688 67.230469 141.164063 C 79.496094 120.730469 98.308594 104.980469 119.375 94.203125 C 123.171875 92.261719 126.742188 90.628906 130.078125 89.234375 C 129.25 81.601563 119.0625 79.410156 113.597656 77.800781 C 102.785156 81.882813 92.367188 86.984375 82.570313 93.242188 C 62.558594 106.019531 45.679688 123.953125 35.277344 145.382813 C 29.78125 156.703125 25.847656 169.390625 25.851563 182.058594 C 25.855469 187.960938 26.851563 194.25 30.351563 199.144531 C 33.441406 203.464844 37.917969 206.101563 42.859375 207.863281 C 54.808594 212.128906 70.46875 208.425781 77.402344 206.921875 C 87.296875 204.777344 130.421875 186.515625 150.066406 155.507813 C 150.757813 154.414063 154.59375 151.617188 157.726563 151.152344 C 184.6875 147.144531 200.589844 152.386719 205.839844 151.128906 C 208.488281 150.492188 210.132813 149.71875 211.597656 147.429688 C 212.589844 145.875 212.976563 143.867188 212.578125 142.066406 C 211.605469 137.640625 205.097656 137.9375 204.078125 137.835938 "/>
</g>
<path style=" stroke:none;fill-rule:nonzero;fill:rgb(95.298767%,57.299805%,0%);fill-opacity:1;" d="M 211.136719 66.40625 C 207.863281 63.476563 201.78125 63.894531 197.777344 63.914063 C 183.679688 63.988281 169.589844 64.964844 155.640625 67.046875 C 152.765625 67.476563 149.894531 67.964844 147.039063 68.507813 C 148.898438 69.074219 150.539063 69.679688 151.597656 70.296875 C 153.796875 71.574219 160.9375 74.347656 163.878906 79.339844 C 176.382813 77.207031 191.066406 76.285156 193.8125 76.191406 C 194.019531 76.183594 202.273438 76.09375 204.78125 75.859375 C 207.367188 75.617188 211.578125 75.230469 212.976563 72.589844 C 214.1875 70.300781 212.886719 67.972656 211.136719 66.40625 "/>
</g>
</svg>
